<?xml version="1.0" encoding="utf-8"?>
<!-- Generator: Adobe Illustrator 15.0.0, SVG Export Plug-In . SVG Version: 6.00 Build 0)  -->
<!DOCTYPE svg PUBLIC "-//W3C//DTD SVG 1.1//EN" "http://www.w3.org/Graphics/SVG/1.1/DTD/svg11.dtd">
<svg version="1.1" id="图层_1" xmlns="http://www.w3.org/2000/svg" xmlns:xlink="http://www.w3.org/1999/xlink" x="0px" y="0px"
	 width="750px" height="1334px" viewBox="0 0 750 1334" enable-background="new 0 0 750 1334" xml:space="preserve">
<path fill="none" stroke="#000000" d="M165.006,676.527c0,51.893-23.643,77.839-70.928,77.839
	c-45.873,0-68.807-25.344-68.807-76.031v-99.768h38.174v100.25c0,27.953,10.682,41.928,32.047,41.928
	c20.972,0,31.458-13.492,31.458-40.48V578.567h38.056V676.527z"/>
<path fill="none" stroke="#000000" d="M327.528,610.814h-50.132v143.533h-39.715V610.814h-49.887v-32.24h139.734V610.814z"/>
<path fill="none" stroke="#000000" d="M618.528,722.246h65.822v-40.204h-57.487v-32.115h57.487v-39.101h-61.777v-32.238h101.369
	v175.772H618.528V722.246z"/>
<polygon fill="none" stroke="#000000" points="344.568,578.589 344.568,609.231 344.568,723.718 344.568,754.359 384.16,754.359 
	384.16,723.718 384.16,609.231 384.16,578.589 "/>
<path fill="none" stroke="#000000" d="M563.601,578.589h-18.389l-35.914,104.188c-2.858,8.334-4.942,16.711-6.25,25.128
	c-1.308-8.417-3.392-16.794-6.25-25.128l-35.914-104.188h-18.389h-39.591v30.642v114.486v30.642h35.671h3.92v-30.642v-91.417
	c0.422,1.631,0.791,2.898,1.105,3.775l41.921,118.283h17.526h17.526l41.921-118.283c0.316-0.877,0.686-2.145,1.105-3.775v91.417
	v30.642h3.92h35.672v-30.642V609.231v-30.642H563.601z"/>
<circle fill="none" stroke="#000000" stroke-miterlimit="10" cx="189.18" cy="736.085" r="18.257"/>
</svg>
