<?xml version="1.0" encoding="utf-8"?>
<!-- Generator: Adobe Illustrator 15.0.0, SVG Export Plug-In . SVG Version: 6.00 Build 0)  -->
<!DOCTYPE svg PUBLIC "-//W3C//DTD SVG 1.1//EN" "http://www.w3.org/Graphics/SVG/1.1/DTD/svg11.dtd">
<svg version="1.1" id="图层_1" xmlns="http://www.w3.org/2000/svg" xmlns:xlink="http://www.w3.org/1999/xlink" x="0px" y="0px"
	 width="750px" height="1334px" viewBox="0 0 750 734" enable-background="new 0 0 750 1334" xml:space="preserve">
<path fill="#FFFFFF" d="M68.543,253.755c18.066,0,80.387,2.64,124.091,36.547c76.629,59.452,96.597,94.914,100.573,103.343
	c-1.652,8.048-7.484,31.964-21.392,49.889c-13.799,17.785-35.523,29.443-42.961,33.086c-9.209-1.855-47.134-12.606-123.119-71.559
	c-55.58-43.12-75.605-130.694-72.959-146.996C36.798,256.364,48.575,253.755,68.543,253.755 M120.729,361.896
	c11.283,0,21.74-5.12,28.663-14.051c5.93-7.643,8.539-17.127,7.349-26.706c-1.185-9.6-6.044-18.149-13.679-24.066
	c-6.377-4.95-14.012-7.562-22.078-7.562c-11.289,0-21.735,5.119-28.668,14.051c-5.925,7.64-8.539,17.125-7.354,26.704
	c1.195,9.602,6.05,18.149,13.679,24.068C105.023,359.281,112.658,361.896,120.729,361.896 M250.194,286.688
	c4.979,0,10.041,0.574,15.046,1.715c23.747,5.402,53.325,26.636,72.352,41.986c-13.014,1.632-28.362,4.725-40.144,10.574
	c-14.563-16.931-32.987-34.955-55.003-53.816C245.018,286.844,247.606,286.688,250.194,286.688 M305.899,453.646l8.555,19.196
	l-20.15-3.42c1.466-1.689,2.858-3.386,4.184-5.088C301.065,461.013,303.54,457.448,305.899,453.646 M118.993,456.92
	c22.785,15.833,43.824,28.546,62.825,37.972c-1.294,11.15-0.421,23.614,1.029,34.359c-19.62-14.641-47.405-37.865-58.61-59.229
	C122.002,465.758,120.251,461.385,118.993,456.92 M68.543,243.111c-23.539,0-40.918,3.555-44.515,8.186
	c-9.423,12.151,13.98,114.697,75.184,162.174c93.629,72.646,131.263,74.147,131.263,74.147s30.992-13.38,49.754-37.558
	c18.747-24.173,24.017-57.521,24.017-57.521s-11.455-38.01-105.089-110.651C161.273,252.5,106.795,243.111,68.543,243.111
	 M120.729,351.251c-5.452,0-10.936-1.736-15.566-5.327c-11.117-8.627-13.102-24.669-4.438-35.84
	c5.057-6.512,12.625-9.93,20.259-9.93c5.447,0,10.93,1.733,15.556,5.327c11.122,8.628,13.107,24.672,4.444,35.838
	C135.926,347.834,128.359,351.251,120.729,351.251 M250.194,276.043c-11.902,0-22.151,2.796-30.233,6.206
	c37.317,30.342,60.715,54.678,75.262,72.659c1.539-1.234,3.238-2.427,5.224-3.508c22.27-12.172,63.459-12.193,63.776-12.193
	c0,0-55.289-51.784-96.623-61.183C261.483,276.636,255.662,276.043,250.194,276.043 M306.673,429.239
	c-4.168,9.496-9.604,19.553-16.6,28.57c-5.411,6.978-11.652,13.209-17.988,18.638l60.174,10.212L306.673,429.239z M106.042,434.536
	c-0.696,11.543,1.019,25.641,8.773,40.424c19.604,37.405,83.479,78.113,83.479,78.113s-10.644-39.687-4.667-63.987
	c0.021-0.101,0.062-0.187,0.093-0.293C173.3,479.336,144.481,462.939,106.042,434.536"/>
<path fill="none" d="M366.645,504.257c151.226,141.46,271.227,320.745,343.782,529.988c6.548,18.877,12.64,37.806,18.289,56.765"/>
</svg>
